<?xml version="1.0" encoding="UTF-8"?>
<!-- Generator: visioncortex VTracer 0.6.5 -->
<svg version="1.1" xmlns="http://www.w3.org/2000/svg" width="795" height="795">
<path d="M0 0 C262.35 0 524.7 0 795 0 C795 262.35 795 524.7 795 795 C532.65 795 270.3 795 0 795 C0 532.65 0 270.3 0 0 Z " fill="#FDFBF8" transform="translate(0,0)"/>
<path d="M0 0 C4.58 4.2 8.51 8.65 12.06 13.75 C12.49 14.36 12.92 14.97 13.35 15.59 C21.4 27.24 27.55 39.61 29.13 53.81 C29.21 54.55 29.29 55.28 29.38 56.04 C30.26 64.48 30.27 72.89 30.23 81.36 C30.23 83.13 30.23 84.89 30.23 86.66 C30.23 91.4 30.22 96.13 30.2 100.87 C30.19 105.84 30.19 110.81 30.19 115.78 C30.18 125.17 30.16 134.56 30.14 143.95 C30.12 154.65 30.11 165.35 30.1 176.05 C30.08 198.03 30.04 220.02 30 242 C29.07 242.19 28.13 242.38 27.17 242.57 C25.93 242.83 24.69 243.09 23.42 243.36 C22.2 243.61 20.97 243.86 19.72 244.12 C-4.06 249.76 -25.15 265.54 -37.96 286.22 C-43.05 294.91 -46.94 304.12 -49 314 C-49.2 314.94 -49.41 315.88 -49.62 316.85 C-54.03 339.74 -48.64 363.87 -36.12 383.44 C-32.17 389.03 -27.72 394.05 -23 399 C-22.74 399.3 -22.74 399.3 -21.44 400.82 C-12.53 410.77 0.59 416.8 13 421 C13.83 421.35 14.65 421.7 15.5 422.06 C18.25 423.09 20.86 423.6 23.75 424.06 C28.89 424.89 28.89 424.89 30 426 C30.1 427.68 30.13 429.37 30.13 431.05 C30.14 431.6 30.14 431.6 30.15 434.37 C30.15 435.58 30.15 436.79 30.15 438.04 C30.15 439.31 30.15 440.58 30.16 441.88 C30.16 445.38 30.17 448.87 30.17 452.36 C30.17 454.55 30.17 456.73 30.17 458.92 C30.18 466.55 30.19 474.18 30.19 481.81 C30.18 488.91 30.2 496 30.21 503.1 C30.22 509.2 30.23 515.3 30.23 521.4 C30.23 525.04 30.23 528.68 30.24 532.32 C30.25 536.39 30.25 540.46 30.24 544.54 C30.25 545.73 30.25 546.92 30.26 548.14 C30.17 571.43 21.78 590.25 7 608 C6.44 608.71 5.89 609.43 5.31 610.16 C-8.73 627.29 -30.61 638.09 -52.35 640.75 C-67.52 642.17 -82.53 642.07 -97 637 C-98.04 636.65 -99.07 636.3 -100.14 635.94 C-125.61 626.34 -144.04 606.09 -155.69 582.03 C-162.49 566.32 -163.3 550.75 -163.27 533.92 C-163.27 531.89 -163.28 529.85 -163.28 527.82 C-163.29 522.25 -163.29 516.68 -163.29 511.11 C-163.29 505.09 -163.3 499.07 -163.31 493.06 C-163.33 481.28 -163.33 469.5 -163.33 457.72 C-163.34 448.14 -163.34 438.56 -163.35 428.98 C-163.35 426.22 -163.35 423.46 -163.35 420.7 C-163.35 420.01 -163.35 419.33 -163.35 418.62 C-163.36 399.32 -163.37 380.02 -163.37 360.72 C-163.37 359.99 -163.37 359.26 -163.37 358.51 C-163.37 354.83 -163.37 351.15 -163.37 347.46 C-163.37 347.09 -163.37 347.09 -163.37 345.24 C-163.37 343.76 -163.37 342.28 -163.37 340.8 C-163.37 317.79 -163.38 294.77 -163.41 271.76 C-163.44 245.87 -163.46 219.99 -163.46 194.11 C-163.46 191.34 -163.46 188.58 -163.46 185.82 C-163.46 185.14 -163.46 184.46 -163.46 183.76 C-163.46 172.84 -163.47 161.92 -163.49 151 C-163.5 140.01 -163.51 129.03 -163.49 118.04 C-163.49 112.1 -163.49 106.15 -163.5 100.21 C-163.52 94.76 -163.52 89.3 -163.5 83.85 C-163.5 81.89 -163.5 79.93 -163.51 77.97 C-163.6 61.13 -161.62 45.27 -154 30 C-153.45 28.88 -152.89 27.76 -152.32 26.61 C-147.55 17.44 -141.34 10.22 -134 3 C-133.16 2.16 -132.33 1.33 -131.46 0.47 C-94.97 -34.18 -36.96 -31.54 0 0 Z " fill="#15584B" transform="translate(295,92)"/>
<path d="M0 0 C0.63 -0.01 0.63 -0.01 3.82 -0.03 C5.22 -0.02 6.61 -0.01 8.01 0.01 C9.48 0 10.95 -0 12.43 -0.01 C16.43 -0.02 20.43 -0.01 24.43 0.02 C28.64 0.04 32.85 0.03 37.06 0.03 C44.15 0.03 51.23 0.05 58.32 0.08 C66.46 0.12 74.6 0.13 82.74 0.12 C90.61 0.11 98.47 0.12 106.34 0.14 C109.67 0.15 112.99 0.15 116.32 0.15 C140.95 0.15 164.11 1.58 187.86 8.62 C188.6 8.84 189.34 9.05 190.1 9.27 C197.7 11.48 204.89 13.82 211.86 17.62 C212.39 17.85 212.39 17.85 215.06 18.98 C254.31 35.59 287.41 67.91 303.67 107.37 C304.76 110.11 305.82 112.86 306.86 115.62 C307.25 116.62 307.64 117.62 308.04 118.66 C322.29 157.93 318.4 204.19 301.43 241.78 C293.93 257.55 285.14 271.43 273.16 284.17 C271.15 286.31 269.25 288.5 267.36 290.75 C248.21 312.54 220.83 326.27 193.86 335.62 C192.48 336.12 191.11 336.61 189.74 337.11 C181.25 340.1 172.74 342.18 163.86 343.62 C162.94 343.78 162.02 343.95 161.07 344.12 C150.88 345.77 140.92 345.91 130.62 345.89 C128.81 345.89 127 345.89 125.18 345.89 C121.41 345.9 117.65 345.89 113.88 345.88 C109.04 345.87 104.21 345.88 99.37 345.89 C95.64 345.9 91.91 345.89 88.18 345.89 C86.4 345.89 84.61 345.89 82.83 345.89 C80.35 345.9 77.87 345.89 75.39 345.88 C75.02 345.88 75.02 345.88 73.16 345.89 C68.09 345.85 68.09 345.85 65.86 343.62 C65.44 341.82 65.02 340.02 64.67 338.21 C60.45 316.65 47.38 296.85 29.86 283.62 C18.75 276.47 7.22 271.07 -5.74 268.3 C-8.14 267.62 -8.14 267.62 -10.14 265.62 C-10.39 263.71 -10.39 263.71 -10.4 261.33 C-10.4 260.88 -10.4 260.88 -10.42 258.58 C-10.42 258.08 -10.42 258.08 -10.41 255.54 C-10.41 254.48 -10.42 253.42 -10.42 252.33 C-10.44 248.76 -10.43 245.18 -10.43 241.61 C-10.44 239.05 -10.44 236.5 -10.45 233.95 C-10.47 227.71 -10.47 221.48 -10.48 215.25 C-10.48 210.19 -10.48 205.12 -10.49 200.06 C-10.5 185.71 -10.51 171.36 -10.51 157.01 C-10.51 156.23 -10.51 155.46 -10.51 154.66 C-10.51 153.89 -10.51 153.11 -10.51 152.31 C-10.51 139.75 -10.53 127.19 -10.56 114.63 C-10.59 101.74 -10.6 88.85 -10.6 75.96 C-10.6 68.72 -10.6 61.48 -10.63 54.24 C-10.65 47.43 -10.65 40.62 -10.63 33.81 C-10.63 31.31 -10.63 28.81 -10.65 26.31 C-10.66 22.9 -10.65 19.49 -10.64 16.08 C-10.65 15.08 -10.66 14.09 -10.67 13.06 C-10.63 8.88 -10.47 6.25 -8.49 2.51 C-5.48 0.09 -3.85 -0 0 0 Z " fill="#1A5F53" transform="translate(361.1414489746094,67.3785400390625)"/>
<path d="M0 0 C0.71 0 1.43 0 2.16 0.01 C2.54 0 2.54 0 4.44 -0.01 C6.94 -0.02 9.44 -0.02 11.95 -0.02 C13.7 -0.02 15.46 -0.03 17.21 -0.03 C20.92 -0.04 24.62 -0.04 28.32 -0.03 C32.07 -0.03 35.82 -0.04 39.57 -0.05 C80.12 -0.25 80.12 -0.25 99.88 3.28 C100.6 3.41 101.32 3.53 102.06 3.66 C106.28 4.41 110.45 5.28 114.63 6.22 C115.19 6.34 115.19 6.34 118.04 6.94 C129.55 9.46 140.28 13.15 150.88 18.28 C151.47 18.57 152.06 18.85 152.67 19.14 C189.99 37.04 221.51 64.24 235.92 104.17 C237.02 107.52 237.96 110.88 238.88 114.28 C239.06 114.93 239.25 115.57 239.44 116.23 C245.25 136.88 245.1 160.49 239.88 181.28 C239.72 181.94 239.56 182.59 239.39 183.27 C230.78 216.94 208.31 245.02 179.88 264.28 C178.82 265 177.76 265.72 176.67 266.47 C155.28 280.28 155.28 280.28 145.88 280.28 C145.88 280.94 145.88 281.6 145.88 282.28 C132.37 286.97 118.83 290.18 104.78 292.75 C102.88 293.1 100.99 293.46 99.1 293.83 C87.15 296.15 75.22 296.44 63.07 296.49 C61.52 296.5 59.97 296.51 58.42 296.52 C53.37 296.55 48.33 296.57 43.28 296.59 C42.42 296.59 41.56 296.6 40.67 296.6 C32.55 296.63 24.42 296.66 16.3 296.68 C5.93 296.7 -4.43 296.74 -14.8 296.81 C-22.11 296.86 -29.42 296.88 -36.73 296.89 C-41.09 296.89 -45.45 296.91 -49.81 296.95 C-53.9 296.98 -57.99 296.99 -62.08 296.98 C-63.58 296.98 -65.08 296.99 -66.58 297.01 C-68.63 297.04 -70.68 297.03 -72.72 297.01 C-73.87 297.01 -75.02 297.02 -76.2 297.02 C-79.12 296.28 -79.12 296.28 -81.49 293.78 C-83.5 289.48 -83.67 286.3 -83.6 281.63 C-83.61 280.77 -83.61 279.91 -83.61 279.02 C-83.62 276.15 -83.6 273.29 -83.58 270.42 C-83.58 268.36 -83.58 266.3 -83.58 264.24 C-83.58 258.65 -83.56 253.06 -83.53 247.47 C-83.5 241.63 -83.5 235.79 -83.5 229.95 C-83.48 218.89 -83.45 207.83 -83.41 196.77 C-83.37 184.17 -83.34 171.58 -83.32 158.99 C-83.28 133.09 -83.21 107.18 -83.12 81.28 C-81.68 80.8 -80.24 80.32 -78.79 79.84 C-77.99 79.57 -77.19 79.3 -76.36 79.03 C-74.71 78.48 -73.05 77.93 -71.4 77.4 C-58.85 73.1 -46.93 67.32 -37.12 58.28 C-36.29 57.53 -35.46 56.78 -34.61 56.01 C-20.54 42.68 -12.16 26.57 -8.36 7.69 C-7.15 1.69 -6.29 0.07 0 0 Z " fill="#105146" transform="translate(434.1226043701172,436.71783447265625)"/>
<path d="M0 0 C13.79 10.72 22.73 24.83 26.23 41.97 C26.66 45.69 26.76 49.35 26.73 53.09 C26.73 53.59 26.73 53.59 26.71 56.11 C26.3 73.01 20.01 89.71 8.25 102.11 C-7.45 116.59 -25.76 124.01 -47.07 123.44 C-60.49 122.63 -72.31 117.27 -82.77 108.97 C-83.64 108.29 -84.51 107.61 -85.41 106.91 C-94.18 99.58 -101.5 89.62 -105.77 78.97 C-106.14 78.12 -106.51 77.27 -106.89 76.4 C-112.81 60.68 -111.46 42.2 -104.77 26.97 C-100.71 18.48 -95.4 11.61 -88.77 4.97 C-88.23 4.42 -87.69 3.87 -87.13 3.3 C-63.14 -19.19 -25.74 -18.88 0 0 Z " fill="#D7A741" transform="translate(377.76953125,371.03125)"/>
<path d="M0 0 C0.38 0 0.38 0 2.28 0.01 C2.68 0.01 2.68 0.01 4.68 0.01 C7.3 0.01 9.93 0.02 12.55 0.03 C14.37 0.03 16.18 0.03 18 0.03 C22.78 0.03 27.57 0.04 32.35 0.06 C37.23 0.07 42.11 0.07 46.99 0.08 C56.57 0.09 66.15 0.1 75.74 0.12 C75.74 0.45 75.74 0.78 75.74 1.12 C74.75 1.13 73.77 1.15 72.76 1.16 C63.5 1.25 54.25 1.36 44.99 1.46 C40.23 1.52 35.47 1.57 30.71 1.62 C26.12 1.67 21.53 1.72 16.94 1.78 C15.19 1.8 13.44 1.82 11.68 1.83 C9.23 1.86 6.78 1.89 4.33 1.92 C3.6 1.92 2.87 1.93 2.12 1.94 C-0.94 1.98 -3.34 2.15 -6.26 3.12 C-6.59 4.11 -6.92 5.1 -7.26 6.12 C-6.23 0.37 -5.94 0.01 0 0 Z " fill="#618B83" transform="translate(434.26478576660156,436.8755798339844)"/>
<path d="M0 0 C0.66 0.33 1.32 0.66 2 1 C-1.8 4.3 -5.76 6.55 -10.31 8.62 C-10.63 8.77 -10.63 8.77 -12.21 9.53 C-20.17 13.22 -27.25 14.3 -36 14.12 C-36.87 14.12 -37.74 14.11 -38.64 14.1 C-40.76 14.07 -42.88 14.04 -45 14 C-45 13.67 -45 13.34 -45 13 C-44.71 12.98 -44.71 12.98 -43.22 12.86 C-40.5 12.65 -37.78 12.42 -35.06 12.19 C-34.6 12.15 -34.6 12.15 -32.26 11.97 C-24.24 11.27 -17.33 9.24 -10.06 5.81 C-6.21 4 -6.21 4 -4 4 C-4 3.34 -4 2.68 -4 2 C-2.12 0.94 -2.12 0.94 0 0 Z " fill="#C99838" transform="translate(375,479)"/>
<path d="M0 0 C1.02 0 2.04 0.01 3.08 0.01 C5.58 0.03 8.07 0.04 10.56 0.06 C10.56 0.39 10.56 0.72 10.56 1.06 C3.01 2.59 -4.11 3.25 -11.82 3.04 C-14.44 3.06 -14.44 3.06 -16.44 4.06 C-18.11 3.78 -19.78 3.45 -21.44 3.06 C-21.44 3.72 -21.44 4.38 -21.44 5.06 C-23.42 5.39 -25.4 5.72 -27.44 6.06 C-27.77 5.07 -28.1 4.08 -28.44 3.06 C-26.92 2.75 -25.4 2.44 -23.88 2.12 C-23.45 2.04 -23.45 2.04 -21.31 1.6 C-14.12 0.26 -7.29 -0.06 0 0 Z " fill="#25695D" transform="translate(231.4375,67.9375)"/>
<path d="M0 0 C2.1 3.46 2.1 3.46 1.65 5.91 C1.44 6.6 1.22 7.29 1 8 C0.74 10.78 0.56 13.56 0.38 16.34 C0 18.98 -0.67 20.72 -2 23 C-2.33 23 -2.66 23 -3 23 C-3.41 14.98 -1.86 7.78 0 0 Z " fill="#317468" transform="translate(135,138)"/>
<path d="M0 0 C0.33 0.66 0.66 1.32 1 2 C-3.25 7.2 -7.37 11.32 -13 15 C-13.66 14.34 -14.32 13.68 -15 13 C-14.34 12.48 -13.67 11.96 -12.99 11.43 C-8.41 7.81 -3.99 4.26 0 0 Z " fill="#246458" transform="translate(402,490)"/>
<path d="M0 0 C-1.38 3.26 -2.78 4.83 -5.69 6.81 C-10.25 10.08 -15.44 13.89 -18 19 C-18.66 18.67 -19.32 18.34 -20 18 C-4.62 0 -4.62 0 0 0 Z " fill="#E8F0EE" transform="translate(283,351)"/>
<path d="M0 0 C0.99 0.33 1.98 0.66 3 1 C1.86 2.14 0.71 3.29 -0.44 4.43 C-1.56 5.55 -2.66 6.7 -3.75 7.86 C-4.35 8.48 -4.95 9.11 -5.56 9.75 C-6.12 10.34 -6.68 10.94 -7.25 11.55 C-9.17 13.15 -10.56 13.59 -13 14 C-8.88 9.08 -4.6 4.47 0 0 Z " fill="#2A7063" transform="translate(167,89)"/>
<path d="M0 0 C0.66 0.99 1.32 1.98 2 3 C1.6 3.52 1.2 4.04 0.79 4.57 C-2.02 8.28 -4.71 11.94 -7 16 C-7.66 15.67 -8.32 15.34 -9 15 C-7.61 11.11 -5.78 8.03 -3.38 4.69 C-2.74 3.8 -2.11 2.92 -1.46 2.01 C-0.98 1.35 -0.5 0.68 0 0 Z " fill="#2E7468" transform="translate(153,103)"/>
<path d="M0 0 C0.98 0.01 1.96 0.01 2.97 0.02 C3.98 0.04 5 0.05 6.05 0.07 C7.08 0.08 8.11 0.09 9.17 0.1 C11.71 0.12 14.26 0.15 16.8 0.2 C14.8 2.2 14.8 2.2 11.21 2.36 C9.76 2.33 8.31 2.3 6.86 2.26 C-0.84 2.07 -0.84 2.07 -4.2 3.2 C-6.89 2.76 -6.89 2.76 -9.2 2.2 C-6.01 0.31 -3.69 -0.04 0 0 Z " fill="#E7B951" transform="translate(328.203125,357.8046875)"/>
<path d="M0 0 C-3.51 2.41 -5.73 3.37 -10 3 C-10 5.64 -10 8.28 -10 11 C-10.33 11 -10.66 11 -11 11 C-11.33 7.7 -11.66 4.4 -12 1 C-3.96 -1.28 -3.96 -1.28 0 0 Z " fill="#1F5C4F" transform="translate(364,516)"/>
<path d="M0 0 C4.14 3.38 7.81 6.67 11 11 C8 11 8 11 5.74 9.03 C4.94 8.2 4.14 7.36 3.31 6.5 C2.5 5.66 1.7 4.83 0.86 3.97 C0.25 3.32 -0.37 2.67 -1 2 C-0.67 1.34 -0.34 0.68 0 0 Z " fill="#2D6F63" transform="translate(626,120)"/>
<path d="M0 0 C-1.27 3.82 -2.63 4.23 -6.06 6.19 C-6.98 6.72 -7.9 7.25 -8.85 7.79 C-9.56 8.19 -10.27 8.59 -11 9 C-11.66 8.34 -12.32 7.68 -13 7 C-11.21 5.83 -9.42 4.66 -7.62 3.5 C-6.63 2.85 -5.63 2.2 -4.6 1.53 C-2 0 -2 0 0 0 Z " fill="#E7BC57" transform="translate(306,365)"/>
<path d="M0 0 C0 0.66 0 1.32 0 2 C-1.15 2.5 -1.15 2.5 -7 5 C-7 4.34 -7 3.68 -7 3 C-7.66 2.67 -8.32 2.34 -9 2 C-5.63 0.5 -3.8 0 0 0 Z " fill="#26655A" transform="translate(382,508)"/>
<path d="M0 0 C-1.69 1.56 -1.69 1.56 -4 3 C-6.75 2.69 -6.75 2.69 -9 2 C-5.95 -1.05 -3.95 -1.23 0 0 Z M-10 3 C-8 4 -8 4 -8 4 Z " fill="#D3E0DE" transform="translate(318,336)"/>
<path d="M0 0 C0.33 0 0.66 0 1 0 C0.25 6.62 0.25 6.62 -2 10 C-2.69 8.38 -2.69 8.38 -3 6 C-1.56 2.75 -1.56 2.75 0 0 Z " fill="#2D7167" transform="translate(143,118)"/>
<path d="M0 0 C3.26 1.8 4.89 2.83 7 6 C4.04 5.39 2.62 4.75 0 3 C0 2.01 0 1.02 0 0 Z " fill="#337166" transform="translate(291,90)"/>
<path d="M0 0 C6.62 0.75 6.62 0.75 10 3 C5.82 4.39 3.87 2.82 0 1 C0 0.67 0 0.34 0 0 Z " fill="#2E5F55" transform="translate(298,511)"/>
</svg>
